<svg xmlns:xlink="http://www.w3.org/1999/xlink" xmlns="http://www.w3.org/2000/svg" width="22" height="22" viewBox="0 0 24 24" fill="#ffffff"><path d="M12.272 5.93c1.018 0 2.294-.689 3.054-1.606.688-.832 1.19-1.993 1.19-3.154 0-.158-.015-.315-.044-.444-1.132.043-2.494.76-3.31 1.72-.646.73-1.234 1.878-1.234 3.053 0 .172.029.344.043.402.072.014.187.028.301.028zM8.69 23.273c1.39 0 2.007-.931 3.741-.931 1.763 0 2.15.903 3.698.903 1.52 0 2.538-1.405 3.498-2.781 1.075-1.577 1.52-3.125 1.548-3.197-.1-.029-3.01-1.218-3.01-4.558 0-2.896 2.294-4.2 2.423-4.3-1.52-2.18-3.828-2.237-4.459-2.237-1.705 0-3.096 1.032-3.97 1.032-.946 0-2.194-.975-3.67-.975-2.81 0-5.662 2.322-5.662 6.709 0 2.724 1.06 5.605 2.365 7.468 1.118 1.577 2.093 2.867 3.498 2.867z" fill="#FFFFFF" fill-rule="nonzero"></path></svg>