<svg xmlns:xlink="http://www.w3.org/1999/xlink" xmlns="http://www.w3.org/2000/svg" width="22" height="22" viewBox="0 0 22 22"><path fill="#FFFFFF" d="M87,22.0672385 C87,15.954953 82.0751851,11 76.0000458,11 C69.9248699,11 65,15.954953 65,22.0672385 C65,27.5912193 69.022551,32.1697104 74.2812514,33 L74.2812514,25.2663715 L71.4882953,25.2663715 L71.4882953,22.0672385 L74.2812514,22.0672385 L74.2812514,19.6289707 C74.2812514,16.8552481 75.9234981,15.3231323 78.436097,15.3231323 C79.6395923,15.3231323 80.8984586,15.5392824 80.8984586,15.5392824 L80.8984586,18.2628574 L79.5114322,18.2628574 C78.1449406,18.2628574 77.7187486,19.1159657 77.7187486,19.9911824 L77.7187486,22.0672385 L80.7695651,22.0672385 L80.2818598,25.2663715 L77.7187486,25.2663715 L77.7187486,33 C82.9775316,32.1697104 87,27.5912193 87,22.0672385 Z" transform="translate(-65 -11)"></path></svg>