<svg xmlns:xlink="http://www.w3.org/1999/xlink" xmlns="http://www.w3.org/2000/svg" width="139" height="32" viewBox="0 0 139 32" class="Login__LogoLight-sc-1dpiyoc-15 eCdjqU"><path fill="#FFFFFF" d="M5.02515842 2.43822076C6.31028879 3.02998353 7.13513267 3.77726524 7.28462743 3.89060956 7.21643684 3.55584843 6.96334484 1.95189456 6.81778415.952883031 7.5665693 1.47611203 9.30542938 2.68863262 9.8758699 3.08270181 10.1092915 2.36046129 10.9170878.0039538715 10.9170878.0039538715 10.9170878.0039538715 12.3753173 2.37759473 12.6244753 2.76375618 12.9287102 2.44349259 14.6728157.494233937 15.1239227 0 15.1999815 1.12158155 15.3035787 2.72685338 15.3271831 2.96803954 15.4163554 2.84810544 16.0838364 1.90840198 17.2024244 1.04118616 16.7172221 2.00065898 16.4864232 3.32652389 16.3828259 4.39143328 15.282597 4.08171334 14.1220456 3.91565074 12.9234648 3.91565074 10.624655 3.91565074 8.46616056 4.52454695 6.6000988 5.58945634 6.2604572 4.56276771 5.72935741 3.2830313 5.02515842 2.43822076L5.02515842 2.43822076ZM18.4232983 15.7970346 18.4206755 14.1456343C18.4206755 14.1456343 17.6876267 13.908402 16.9021235 13.2968699 15.3284945 13.5367381 13.4204693 15.1275124 13.4204693 15.1275124 13.4204693 15.1275124 14.0656572 16.3558484 14.7685448 17.6803954 16.0077777 17.8517298 17.831876 16.2820428 18.4206755 15.7957166L18.4232983 15.7970346ZM20.0074181 18.7927512C20.0074181 18.7927512 19.8815278 18.1100494 19.3425599 17.4708402L18.1151292 17.5011532C18.1151292 17.5011532 16.4588847 18.9324547 15.447828 18.9654036 15.447828 18.9654036 16.005155 20.0065898 16.2844741 20.5495881 16.8418011 20.4283361 17.8200738 19.9855025 18.213481 19.5268534 18.213481 19.5268534 18.4744412 20.3716639 18.4246096 21.3667216 18.9780025 21.0425041 19.7412126 20.1700165 20.0087295 18.7914333L20.0074181 18.7927512ZM20.5122908 13.3640857C19.89333 13.8886326 19.3674757 14.1785832 19.3674757 14.1785832L19.3727211 15.8378913C19.8172713 16.3347611 20.2539534 16.7459638 20.5817927 17.4958814 21.2020648 16.3742998 21.0840427 14.7215815 20.5122908 13.3640857L20.5122908 13.3640857ZM20.6473606 11.8853377 20.7444011 11.1314662C20.777185 10.7163097 20.6709651 10.0283361 20.0926564 9.31400329 19.3753438 8.50477759 17.5709159 7.20263591 16.7106653 6.89028007 16.7106653 6.89028007 16.639852 7.72454695 16.3434852 8.12652389 14.6295409 6.88237232 13.7876494 6.57133443 13.7876494 6.57133443 11.90454 6.84151565 10.6954684 7.57166392 10.0384782 8.14497529L10.6115415 8.63525535C9.47721721 8.98583196 8.74023428 9.96639209 8.74023428 9.96639209 8.74810243 9.98352554 9.75391365 10.1271829 9.75391365 10.1271829 9.75391365 10.1271829 9.65162776 11.3146623 11.1308391 12.0593081 12.3962991 12.6958814 14.219086 11.906425 15.9343417 12.5970346 14.8052628 11.2883031 14.0289392 10.7031301 14.0289392 10.7031301 14.0289392 10.7031301 13.5804549 10.6095552 13.2644177 10.6108731 12.8710105 10.6135091 12.2848337 10.6925865 11.6396458 10.4395387 11.3327881 10.3196046 10.9734762 10.1060956 10.6928456 9.92817133 10.6928456 9.92817133 11.4849056 9.11103789 12.6402116 8.93047776 12.6402116 8.93047776 13.6827408 9.22570016 14.5102074 9.8398682 15.0596662 9.30214168 15.6327294 9.31927512 15.6327294 9.31927512 15.6327294 9.31927512 15.0649116 9.85304778 15.2366995 10.4988468 16.0628547 11.2395387 16.9585119 12.2978583 16.9585119 12.2978583 17.8712167 11.7943987 19.8539893 11.9103789 20.2618215 12.3848435 19.7451466 11.7126853 19.0016069 11.1512356 18.425921 10.6701812 18.356419 10.4184514 17.7282788 9.53805601 17.6220588 9.45766063 17.6220588 9.45766063 18.2200378 9.64349259 18.752449 10.123229 18.9071892 9.90444811 19.1930651 9.68039539 19.5838497 9.5815486 19.9864364 9.92026359 20.0559384 10.4395387 20.0454475 10.5265239 19.8631688 10.7426689 19.6874469 10.83229 19.6874469 10.83229L20.652606 11.8827018 20.7497449 11.1288303M21.6151425 12.4981878C23.087797 15.2329489 23.4457976 18.5093904 22.4229387 21.7739703 22.3613049 21.7041186 21.5823585 20.8289951 21.2597646 20.4705107 21.0551928 23.662603 20.1201949 26.1416804 17.3925712 28.2359143 17.3925712 28.2359143 17.1329224 27.2329489 16.980805 26.6056013 12.4828487 29.9189456 8.61565532 28.4032949 7.52853993 27.8589786 8.37043146 23.9789127 7.71868677 21.7515651 7.15480304 20.0527183 5.95753362 22.029654 4.73141433 23.5650741 3.50791776 24.6023064 2.67127166 22.6385502 2.60701514 18.9891269 3.28367562 16.8329489 3.05943348 16.893575 1.7375851 17.3126853 1.00453624 17.5367381 1.29959169 15.5571664 2.60045835 12.9067545 3.97476104 11.5861614 3.73478261 11.5439868 3.03058362 11.4438221 2.47194531 11.3502471 2.81552098 10.6477759 3.8121527 9.34299835 5.33988422 8.11861614 5.29529807 8.98056013 5.61395794 10.0112026 6.58436251 10.5041186 5.96933583 9.41943987 5.89458845 8.08039539 6.53584228 7.38583196 7.17971883 6.68731466 8.26027743 6.92718287 8.95005149 7.47018122 8.82284981 7.09324547 8.54484201 6.65700165 8.13438711 6.36968699 10.0384782 5.47874794 12.3490902 4.96342669 14.9691825 5.3693575 15.3730806 5.72388797 15.8045173 6.22207578 16.0431843 6.53047776 16.0536752 6.30906096 16.0222026 5.88467875 15.9527007 5.56177924 17.0240798 5.81746293 18.1426677 6.22866557 19.3019078 6.83097199 17.237831 4.76177924 13.0546005 4.13970346 9.56376681 5.14398682 8.74547971 5.37990115 7.96915606 5.69093904 7.23872992 6.05864909 6.46896305 6.06787479 5.97326991 6.54102142 5.69001668 6.9601318 3.45677481 8.44942339 1.81888927 10.4092257 1.02945204 12.0514003 1.20517394 12.0896211 1.73365103 12.1555189 2.22278738 12.2398682 1.22353295 13.6751236-.0812677887 16.3835255.00397045042 18.8151565.230835302 18.7466227 1.4503978 18.3710049 2.04837683 18.1759473 1.7284056 20.3215815 1.82151198 23.9261944 3.20630553 25.9874794 4.95041104 24.7459638 5.96146769 23.4411862 6.80204786 22.2642504 7.01842185 23.323888 7.22955042 25.2072488 6.4860107 28.3281713 7.08923516 28.7960461 11.4613012 31.1037891 16.4064304 28.0883031L16.819508 29.7265239 17.3545419 29.3772652C20.3641074 27.4121911 21.5194134 24.7578254 21.9233115 22.5963756 22.0623154 22.7505766 22.6091515 23.352883 22.8058551 23.5532125 23.561197 21.4827018 25.0705695 16.5034596 21.609897 12.5008237L21.6151425 12.4981878ZM76.2226925 16.4902801 76.2226925 25.4932455 72.3791036 25.4932455 72.3791036 16.9054366C72.3791036 14.4092257 71.1962591 13.1321252 69.2161093 13.1321252 66.9697538 13.1321252 65.4026816 14.7360791 65.4026816 18.0942339L65.4026816 25.4932455 61.5590927 25.4932455 61.5590927 9.74629325 64.9882926 9.74629325 65.3725204 11.6481054C66.4963538 10.2220758 68.0332648 9.50906096 69.9845648 9.50906096 73.7979925 9.50906096 76.2226925 12.2135091 76.2226925 16.491598L76.2226925 16.4902801ZM83.9662587 5.19934102 83.9662587 9.74497529 89.5539531 9.74497529 89.5539531 13.1624382 83.9662587 13.1624382 83.9662587 19.907743C83.9662587 21.3640857 84.6455419 22.1060956 86.094592 22.1060956 86.9220586 22.1060956 87.8977086 21.8385502 88.7251752 21.3930807L89.997192 24.6313015C88.7553364 25.3153213 87.2472753 25.7304778 85.6513532 25.7304778 82.2221532 25.7304778 80.1226698 23.7390445 80.1226698 20.4718287L80.1226698 13.1624382 77.6101088 13.1624382 77.6101088 9.74497529 80.1226698 9.74497529 80.1226698 5.19934102 83.9662587 5.19934102ZM107.054019 9.74497529 107.054019 25.4932455 103.624819 25.4932455 103.240592 23.6810544C102.057747 24.9581549 100.284792 25.7317957 98.2443195 25.7317957 93.8394695 25.7317957 90.7053251 22.3736409 90.7053251 17.6197694 90.7053251 12.8658979 93.8394695 9.507743 98.2443195 9.507743 100.284792 9.507743 102.057747 10.2800659 103.240592 11.5584843L103.624819 9.74629325 107.054019 9.74629325 107.054019 9.74497529ZM103.21043 17.7673806 103.21043 17.4708402C103.21043 14.6477759 101.110947 13.0728171 98.8645916 13.0728171 96.3520306 13.0728171 94.548914 15.0339374 94.548914 17.6184514 94.548914 20.2029654 96.3520306 22.1640857 98.8645916 22.1640857 101.110947 22.1640857 103.21043 20.5891269 103.21043 17.7660626L103.21043 17.7673806ZM110.708773 21.0359143C111.832606 21.9268534 113.251495 22.461944 114.700545 22.461944 116.149595 22.461944 117.005912 21.9861614 117.005912 21.1242175 117.005912 18.6280066 109.377745 19.7271829 109.377745 14.2602965 109.377745 11.4372323 111.713273 9.50642504 115.201484 9.50642504 117.241956 9.50642504 119.132933 10.1311367 120.700006 11.2896211L118.807717 14.1719934C117.683883 13.2810544 116.413178 12.7749588 115.141161 12.7749588 113.869144 12.7749588 113.220022 13.2797364 113.220022 13.9927512 113.220022 16.3097199 120.848189 15.2105437 120.848189 20.8263591 120.848189 23.7377265 118.364478 25.7291598 114.610061 25.7291598 112.510578 25.7291598 110.500267 25.1650741 108.993517 24.184514L110.707461 21.0345964 110.708773 21.0359143ZM139 9.74497529 132.466817 26.3841845C130.810572 30.6029654 128.475045 32 125.016995 32 124.425572 32 123.83415 31.9406919 123.390911 31.7917628L123.893161 27.9591433C124.189528 28.0184514 124.514745 28.0487644 124.898973 28.0487644 126.73225 28.0487644 127.854772 27.5136738 128.594378 25.7014827L121.557634 9.74497529 125.844461 9.74497529 130.6637 20.9476112 134.802345 9.74497529 139 9.74497529 139 9.74497529ZM31.6588298 8.73410214 31.6588298 13.4879736 40.6757241 13.4879736 40.6757241 17.23229 31.6588298 17.23229 31.6588298 25.4932455 27.6670574 25.4932455 27.6670574 4.99110379 41.7693963 4.99110379 41.7693963 8.7354201 31.6588298 8.7354201 31.6588298 8.73410214ZM58.827535 9.74497529 58.827535 25.4932455 55.398335 25.4932455 55.0141073 23.6810544C53.8312628 24.9581549 52.0569961 25.7317957 50.0178351 25.7317957 45.6129852 25.7317957 42.4788407 22.3736409 42.4788407 17.6197694 42.4788407 12.8658979 45.6129852 9.507743 50.0178351 9.507743 52.0583074 9.507743 53.8312628 10.2800659 55.0141073 11.5584843L55.398335 9.74629325 58.827535 9.74629325 58.827535 9.74497529ZM54.9839461 17.7673806 54.9839461 17.4708402C54.9839461 14.6477759 52.8844627 13.0728171 50.6381072 13.0728171 48.1255462 13.0728171 46.3224296 15.0339374 46.3224296 17.6184514 46.3224296 20.2029654 48.1255462 22.1640857 50.6381072 22.1640857 52.8844627 22.1640857 54.9839461 20.5891269 54.9839461 17.7660626L54.9839461 17.7673806Z"></path></svg>